<svg width="1153" height="289" viewBox="0 0 1153 289" fill="none" xmlns="http://www.w3.org/2000/svg">
  <g clip-path="url(#clip0_9_33)">
    <rect width="1153" height="289" fill="white"/>
    <path d="M419.204 177.121C438.442 176.995 454.033 161.408 454.033 142.174C454.159 132.872 450.512 124.073 443.848 117.662C437.436 110.999 428.509 107.354 419.204 107.479C400.218 107.354 384.752 122.69 384.627 141.672C384.627 141.797 384.627 141.923 384.627 142.049V254.808C385.13 265.116 377.083 273.915 366.772 274.418C366.143 274.418 365.641 274.418 365.012 274.418C359.857 274.669 354.701 272.658 351.055 268.887C347.409 265.116 345.523 259.962 345.774 254.808V142.174C345.774 121.433 352.815 103.96 366.898 89.8804C380.98 75.8012 398.458 68.6359 419.204 68.7616C439.951 68.7616 457.428 75.8012 471.636 90.0061C485.844 104.085 492.885 121.558 492.885 142.3C492.885 163.042 485.844 180.515 471.636 194.846C457.428 209.05 439.951 216.216 419.204 216.216C414.049 216.467 408.894 214.456 405.247 210.685C401.601 206.913 399.715 201.759 399.841 196.605C399.212 186.549 406.882 177.875 417.067 177.372C417.695 177.121 418.45 177.121 419.204 177.121Z" fill="#7761DF"/>
    <path d="M581.781 68.6359C602.527 68.6359 620.005 75.6755 634.213 89.8804C648.421 104.085 655.462 121.433 655.462 142.174C655.462 162.916 648.421 180.389 634.213 194.72C620.005 208.925 602.527 216.09 581.781 216.09C561.035 216.09 543.683 208.925 529.475 194.72C515.392 180.515 508.351 162.916 508.351 142.174C508.351 121.433 515.392 103.96 529.475 89.8804C543.557 75.8012 561.16 68.6359 581.781 68.6359ZM581.781 107.479C562.795 107.479 547.204 122.816 547.204 141.923C547.204 142.049 547.204 142.049 547.204 142.174C547.078 151.477 550.724 160.402 557.262 166.939C563.675 173.601 572.477 177.372 581.781 177.247C601.019 177.121 616.61 161.533 616.61 142.3C616.736 132.998 613.089 124.198 606.425 117.787C600.013 110.999 591.085 107.354 581.781 107.479Z" fill="#7761DF"/>
    <path d="M744.735 177.121C763.973 176.995 779.564 161.408 779.564 142.174C779.69 132.872 776.043 124.073 769.379 117.662C762.967 110.999 754.039 107.354 744.735 107.479C725.749 107.479 710.283 122.816 710.283 141.797C710.283 141.923 710.283 141.923 710.283 142.049V254.808C710.786 265.116 702.739 273.915 692.303 274.418C691.8 274.418 691.171 274.418 690.668 274.418C685.513 274.669 680.358 272.658 676.712 268.887C673.191 265.116 671.179 259.962 671.431 254.808V142.174C671.431 121.433 678.472 103.96 692.554 89.8804C706.637 75.8012 724.114 68.6359 744.861 68.7616C765.607 68.7616 783.084 75.8012 797.293 90.0061C811.501 104.085 818.668 121.558 818.668 142.3C818.668 163.042 811.501 180.515 797.293 194.846C783.084 209.05 765.607 216.216 744.861 216.216C739.705 216.467 734.55 214.456 730.904 210.685C727.258 206.913 725.372 201.759 725.497 196.605C724.869 186.549 732.539 177.875 742.723 177.372C743.352 177.121 744.106 177.121 744.735 177.121Z" fill="#7761DF"/>
    <path d="M851.974 197.632C863.919 209.574 878.756 215.483 896.107 215.483C913.585 215.483 928.296 209.574 940.241 197.632C952.185 185.69 958.221 170.982 958.221 153.509V88.0158C958.849 77.9593 951.18 69.2855 940.995 68.657C940.241 68.657 939.612 68.657 938.857 68.657C933.577 68.4056 928.547 70.4169 924.775 74.0624C921.129 77.7079 919.117 82.8619 919.243 88.0158V153.635C919.368 159.794 916.979 165.828 912.453 170.102C908.052 174.502 902.017 176.891 895.73 176.765C889.569 176.891 883.659 174.376 879.384 169.977C874.983 165.703 872.469 159.794 872.595 153.635V95.3068V88.0158C873.223 77.9593 865.428 69.2855 855.369 68.657C854.74 68.657 853.986 68.657 853.357 68.657C848.076 68.4056 843.047 70.4169 839.274 74.0624C835.628 77.7079 833.616 82.8619 833.742 88.0158V153.509C833.994 170.982 840.029 185.69 851.974 197.632Z" fill="#7761DF"/>
    <path d="M1047.2 176.121C1066.44 175.995 1082.03 160.408 1082.03 141.174C1082.16 131.872 1078.51 123.073 1071.85 116.662C1065.44 109.999 1056.51 106.354 1047.2 106.479C1028.22 106.354 1012.75 121.69 1012.63 140.672C1012.63 140.797 1012.63 140.923 1012.63 141.049V253.808C1013.13 264.116 1005.08 272.915 994.772 273.418C994.143 273.418 993.641 273.418 993.012 273.418C987.857 273.669 982.701 271.658 979.055 267.887C975.409 264.116 973.523 258.962 973.774 253.808V141.174C973.774 120.433 980.815 102.96 994.898 88.8804C1008.98 74.8012 1026.46 67.6359 1047.2 67.7616C1067.95 67.7616 1085.43 74.8012 1099.64 89.0061C1113.84 103.085 1120.89 120.558 1120.89 141.3C1120.89 162.042 1113.84 179.515 1099.64 193.846C1085.43 208.05 1067.95 215.216 1047.2 215.216C1042.05 215.467 1036.89 213.456 1033.25 209.685C1029.6 205.913 1027.72 200.759 1027.84 195.605C1027.21 185.549 1034.88 176.875 1045.07 176.372C1045.7 176.121 1046.45 176.121 1047.2 176.121Z" fill="#7761DF"/>
    <path d="M114.125 192.525C110.855 184.463 104.883 177.789 97.2334 173.646C89.5834 169.503 80.7309 168.149 72.1922 169.815C63.6534 171.481 55.9597 176.065 50.4288 182.78C44.8979 189.496 41.874 197.925 41.875 206.625C41.875 210.476 41.084 214.287 39.551 217.82C38.018 221.353 35.7757 224.534 32.9631 227.165C30.1504 229.796 26.8274 231.821 23.1999 233.115C19.5724 234.409 15.7178 234.944 11.875 234.688C18.0556 245.424 27.6079 253.821 39.049 258.573C50.4902 263.325 63.1801 264.167 75.1487 260.968C87.1174 257.769 97.6952 250.708 105.24 240.882C112.785 231.056 116.875 219.014 116.875 206.625C116.875 201.638 115.9 196.875 114.125 192.525ZM114.125 192.525C128.988 187.461 143.202 180.664 156.475 172.275ZM93.4375 171.963C98.5026 157.068 105.308 142.824 113.712 129.525ZM156.462 172.275C180.167 157.298 200.456 137.503 216.012 114.175L264.462 41.5C266.319 38.732 267.156 35.4056 266.832 32.0887C266.508 28.7718 265.043 25.6702 262.686 23.3137C260.33 20.9571 257.228 19.4918 253.911 19.1678C250.594 18.8439 247.268 19.6815 244.5 21.5375L171.825 70C148.494 85.5517 128.695 105.837 113.712 129.538M156.462 172.288C147.957 153.264 132.736 138.043 113.712 129.538Z" fill="#7761DF"/>
    <path d="M114.125 192.525C110.855 184.463 104.883 177.789 97.2334 173.646C89.5834 169.503 80.7309 168.149 72.1922 169.815C63.6534 171.481 55.9597 176.065 50.4288 182.78C44.8979 189.496 41.874 197.925 41.875 206.625C41.875 210.476 41.084 214.287 39.551 217.82C38.018 221.353 35.7757 224.534 32.9631 227.165C30.1504 229.796 26.8274 231.821 23.1999 233.115C19.5724 234.409 15.7178 234.944 11.875 234.688C18.0556 245.424 27.6079 253.821 39.049 258.573C50.4902 263.325 63.1801 264.167 75.1487 260.968C87.1174 257.769 97.6952 250.708 105.24 240.882C112.785 231.056 116.875 219.014 116.875 206.625C116.875 201.638 115.9 196.875 114.125 192.525ZM114.125 192.525C128.988 187.461 143.202 180.664 156.475 172.275M93.4375 171.963C98.5026 157.068 105.308 142.824 113.712 129.525M156.462 172.275C180.167 157.298 200.456 137.503 216.012 114.175L264.462 41.5C266.319 38.732 267.156 35.4056 266.832 32.0887C266.508 28.7718 265.043 25.6702 262.686 23.3137C260.33 20.9571 257.228 19.4918 253.911 19.1678C250.594 18.8439 247.268 19.6815 244.5 21.5375L171.825 70C148.494 85.5517 128.695 105.837 113.712 129.538C132.736 138.043 147.957 153.264 156.462 172.288" stroke="black" stroke-width="1.5" stroke-linecap="round" stroke-linejoin="round"/>
  </g>
  <defs>
    <clipPath id="clip0_9_33">
      <rect width="1153" height="289" fill="white"/>
    </clipPath>
  </defs>
</svg>
